<svg width="100" height="100" viewBox="0 0 100 100" fill="none" xmlns="http://www.w3.org/2000/svg">
  <rect width="100" height="100" rx="24" fill="url(#paint0_linear)"/>
  <path d="M72 35H32C29.7909 35 28 36.7909 28 39V65C28 67.2091 29.7909 69 32 69H72C74.2091 69 76 67.2091 76 65V39C76 36.7909 74.2091 35 72 35Z" fill="white" fill-opacity="0.2"/>
  <path d="M72 38H32C30.3431 38 29 39.3431 29 41V63C29 64.6569 30.3431 66 32 66H72C73.6569 66 75 64.6569 75 63V41C75 39.3431 73.6569 38 72 38Z" fill="white"/>
  <path d="M75 48H66C63.7909 48 62 49.7909 62 52C62 54.2091 63.7909 56 66 56H75V48Z" fill="#3B82F6"/>
  <circle cx="68" cy="52" r="2" fill="white"/>
  <defs>
    <linearGradient id="paint0_linear" x1="0" y1="0" x2="100" y2="100" gradientUnits="userSpaceOnUse">
      <stop stop-color="#2563EB"/>
      <stop offset="1" stop-color="#1D4ED8"/>
    </linearGradient>
  </defs>
</svg>
